<?xml version="1.0" encoding="utf-8"?>
<!-- Generator: Adobe Illustrator 24.3.0, SVG Export Plug-In . SVG Version: 6.00 Build 0)  -->
<svg version="1.1" id="Layer_1" xmlns="http://www.w3.org/2000/svg" xmlns:xlink="http://www.w3.org/1999/xlink" x="0px" y="0px"
	 viewBox="0 0 213 50" style="enable-background:new 0 0 213 50;" xml:space="preserve">
<style type="text/css">
	.st0{fill:#231F20;}
	.st1{fill:#E60F17;}
	.st2{enable-background:new    ;}
</style>
<path d="M28.1,38.4H0.4L41-0.1L28.1,38.4z M1.9,37.8h25.8l12-35.8L1.9,37.8z"/>
<circle class="st0" cx="31.1" cy="38.1" r="11.8"/>
<rect y="42" class="st1" width="33.4" height="0.8"/>
<g id="Al_Faiha">
	<g class="st2">
		<path d="M63.3,9.9h2.9L72,25h-3l-1.2-3.1h-6.2L60.5,25h-3L63.3,9.9z M64.8,13.9l-2,5.2h4L64.8,13.9z"/>
		<path d="M73.6,9.5h2.8V25h-2.8V9.5z"/>
		<path d="M85.2,9.9h7.5v2.8h-4.6v2.7h4.6v2.8h-4.6V25h-2.9V9.9z"/>
		<path d="M103.2,13.8h2.8V25h-2.8v-1.2c-0.5,0.5-1.1,0.9-1.6,1.1c-0.5,0.2-1.1,0.3-1.8,0.3c-1.4,0-2.7-0.6-3.7-1.7
			c-1.1-1.1-1.6-2.5-1.6-4.2c0-1.7,0.5-3.1,1.5-4.2c1-1.1,2.3-1.7,3.7-1.7c0.7,0,1.3,0.1,1.9,0.4c0.6,0.3,1.1,0.6,1.6,1.1V13.8z
			 M100.2,16.1c-0.9,0-1.6,0.3-2.2,0.9c-0.6,0.6-0.9,1.4-0.9,2.4c0,1,0.3,1.8,0.9,2.4s1.3,0.9,2.2,0.9c0.9,0,1.6-0.3,2.2-0.9
			c0.6-0.6,0.9-1.4,0.9-2.4c0-1-0.3-1.8-0.9-2.4S101.1,16.1,100.2,16.1z"/>
		<path d="M109.9,9.2c0.5,0,0.9,0.2,1.3,0.5s0.5,0.8,0.5,1.3c0,0.5-0.2,0.9-0.5,1.3c-0.3,0.4-0.8,0.5-1.2,0.5
			c-0.5,0-0.9-0.2-1.3-0.5c-0.4-0.4-0.5-0.8-0.5-1.3c0-0.5,0.2-0.9,0.5-1.3C109,9.4,109.4,9.2,109.9,9.2z M108.5,13.8h2.8V25h-2.8
			V13.8z"/>
		<path d="M113.8,9.5h2.8V15c0.5-0.5,1.1-0.8,1.7-1.1c0.6-0.2,1.1-0.4,1.7-0.4c1.1,0,2,0.4,2.8,1.1c0.7,0.7,1,1.6,1,2.9V25H121v-4.9
			c0-1.3-0.1-2.2-0.2-2.6s-0.3-0.8-0.6-1c-0.3-0.2-0.7-0.3-1.1-0.3c-0.6,0-1.1,0.2-1.5,0.6c-0.4,0.4-0.7,0.9-0.8,1.5
			c-0.1,0.3-0.1,1.1-0.1,2.3V25h-2.8V9.5z"/>
		<path d="M134.7,13.8h2.8V25h-2.8v-1.2c-0.5,0.5-1.1,0.9-1.6,1.1c-0.5,0.2-1.1,0.3-1.8,0.3c-1.4,0-2.7-0.6-3.7-1.7
			c-1.1-1.1-1.6-2.5-1.6-4.2c0-1.7,0.5-3.1,1.5-4.2c1-1.1,2.3-1.7,3.7-1.7c0.7,0,1.3,0.1,1.9,0.4c0.6,0.3,1.1,0.6,1.6,1.1V13.8z
			 M131.7,16.1c-0.9,0-1.6,0.3-2.2,0.9c-0.6,0.6-0.9,1.4-0.9,2.4c0,1,0.3,1.8,0.9,2.4c0.6,0.6,1.3,0.9,2.2,0.9
			c0.9,0,1.6-0.3,2.2-0.9c0.6-0.6,0.9-1.4,0.9-2.4c0-1-0.3-1.8-0.9-2.4S132.6,16.1,131.7,16.1z"/>
	</g>
</g>
<g id="For_Engineering_Products">
	<g class="st2">
		<path d="M58.1,32.7h4.7v0.9h-3.7v2.9h3.7v0.9h-3.7V42h-0.9V32.7z"/>
		<path d="M67.6,34.9c1.1,0,1.9,0.4,2.6,1.2c0.6,0.7,1,1.5,1,2.5c0,1-0.3,1.8-1,2.5s-1.5,1.1-2.6,1.1c-1.1,0-1.9-0.4-2.6-1.1
			s-1-1.6-1-2.5c0-1,0.3-1.8,1-2.5C65.6,35.3,66.5,34.9,67.6,34.9z M67.6,35.8c-0.7,0-1.4,0.3-1.9,0.8s-0.8,1.2-0.8,2
			c0,0.5,0.1,1,0.4,1.4c0.2,0.4,0.6,0.8,1,1c0.4,0.2,0.9,0.4,1.4,0.4c0.5,0,0.9-0.1,1.4-0.4c0.4-0.2,0.7-0.6,1-1
			c0.2-0.4,0.4-0.9,0.4-1.4c0-0.8-0.3-1.4-0.8-2C68.9,36.1,68.3,35.8,67.6,35.8z"/>
		<path d="M72.5,35.1h0.9v1c0.3-0.4,0.6-0.7,0.9-0.9c0.3-0.2,0.6-0.3,0.9-0.3c0.2,0,0.5,0.1,0.8,0.2l-0.5,0.8
			c-0.2-0.1-0.3-0.1-0.5-0.1c-0.3,0-0.6,0.1-0.9,0.4s-0.5,0.6-0.6,1.1c-0.1,0.4-0.2,1.2-0.2,2.4V42h-0.9V35.1z"/>
		<path d="M80.5,32.7h5.4v0.9h-4.4v2.9h4.4v0.9h-4.4v3.7h4.4V42h-5.3V32.7z"/>
		<path d="M87.3,35.1h0.9v1.2c0.4-0.5,0.7-0.8,1.2-1.1c0.4-0.2,0.9-0.4,1.4-0.4c0.5,0,1,0.1,1.4,0.4c0.4,0.3,0.7,0.6,0.9,1.1
			c0.2,0.4,0.3,1.1,0.3,2.1V42h-0.9v-3.3c0-0.8,0-1.3-0.1-1.6c-0.1-0.5-0.3-0.8-0.6-1s-0.7-0.3-1.1-0.3c-0.5,0-1,0.2-1.4,0.5
			s-0.7,0.8-0.8,1.3c-0.1,0.3-0.1,1-0.1,1.9V42h-0.9V35.1z"/>
		<path d="M101.2,35.1h0.9v5.5c0,1-0.1,1.7-0.3,2.1c-0.2,0.6-0.6,1.1-1.2,1.5c-0.6,0.3-1.3,0.5-2.1,0.5c-0.6,0-1.1-0.1-1.6-0.3
			c-0.5-0.2-0.9-0.4-1.2-0.7c-0.3-0.3-0.6-0.7-0.8-1.2h1c0.3,0.5,0.6,0.8,1,1c0.4,0.2,0.9,0.3,1.5,0.3c0.6,0,1.1-0.1,1.5-0.3
			c0.4-0.2,0.7-0.5,0.9-0.9c0.2-0.3,0.3-0.9,0.3-1.7v-0.4c-0.3,0.4-0.7,0.7-1.2,1s-1,0.3-1.5,0.3c-0.6,0-1.2-0.2-1.8-0.5
			c-0.6-0.3-1-0.7-1.3-1.3c-0.3-0.5-0.5-1.1-0.5-1.8s0.2-1.2,0.5-1.8c0.3-0.6,0.8-1,1.3-1.3c0.6-0.3,1.2-0.5,1.8-0.5
			c0.5,0,1,0.1,1.4,0.3s0.9,0.6,1.3,1.1V35.1z M98.5,35.8c-0.5,0-1,0.1-1.4,0.4s-0.8,0.6-1,1s-0.4,0.9-0.4,1.4
			c0,0.8,0.3,1.4,0.8,1.9c0.5,0.5,1.2,0.7,2,0.7c0.8,0,1.5-0.2,2-0.7c0.5-0.5,0.7-1.1,0.7-1.9c0-0.5-0.1-1-0.3-1.4s-0.6-0.7-1-1
			C99.5,35.9,99,35.8,98.5,35.8z"/>
		<path d="M104.3,32.2c0.2,0,0.4,0.1,0.5,0.2s0.2,0.3,0.2,0.5c0,0.2-0.1,0.4-0.2,0.5c-0.1,0.1-0.3,0.2-0.5,0.2
			c-0.2,0-0.4-0.1-0.5-0.2c-0.1-0.1-0.2-0.3-0.2-0.5c0-0.2,0.1-0.4,0.2-0.5S104.1,32.2,104.3,32.2z M103.8,35.1h0.9V42h-0.9V35.1z"
			/>
		<path d="M106.6,35.1h0.9v1.2c0.4-0.5,0.7-0.8,1.2-1.1c0.4-0.2,0.9-0.4,1.4-0.4c0.5,0,1,0.1,1.4,0.4c0.4,0.3,0.7,0.6,0.9,1.1
			c0.2,0.4,0.3,1.1,0.3,2.1V42h-0.9v-3.3c0-0.8,0-1.3-0.1-1.6c-0.1-0.5-0.3-0.8-0.6-1c-0.3-0.2-0.7-0.3-1.1-0.3
			c-0.5,0-1,0.2-1.4,0.5c-0.4,0.4-0.7,0.8-0.8,1.3c-0.1,0.3-0.1,1-0.1,1.9V42h-0.9V35.1z"/>
		<path d="M120.3,39.7l0.8,0.4c-0.2,0.5-0.5,0.9-0.9,1.2c-0.3,0.3-0.7,0.5-1.1,0.7s-0.9,0.2-1.4,0.2c-1.1,0-2-0.4-2.6-1.1
			s-1-1.6-1-2.5c0-0.9,0.3-1.7,0.8-2.3c0.7-0.9,1.6-1.3,2.7-1.3c1.2,0,2.1,0.4,2.8,1.3c0.5,0.6,0.8,1.4,0.8,2.4h-6.2
			c0,0.8,0.3,1.5,0.8,2c0.5,0.5,1.1,0.8,1.8,0.8c0.4,0,0.7-0.1,1-0.2s0.6-0.3,0.8-0.5S120,40.2,120.3,39.7z M120.3,37.8
			c-0.1-0.5-0.3-0.9-0.5-1.1c-0.2-0.3-0.5-0.5-0.9-0.7c-0.4-0.2-0.8-0.3-1.2-0.3c-0.7,0-1.3,0.2-1.7,0.7c-0.4,0.3-0.6,0.8-0.8,1.4
			H120.3z"/>
		<path d="M128.8,39.7l0.7,0.4c-0.2,0.5-0.5,0.9-0.9,1.2c-0.3,0.3-0.7,0.5-1.1,0.7s-0.9,0.2-1.4,0.2c-1.1,0-2-0.4-2.6-1.1
			c-0.6-0.7-1-1.6-1-2.5c0-0.9,0.3-1.7,0.8-2.3c0.7-0.9,1.6-1.3,2.7-1.3c1.2,0,2.1,0.4,2.8,1.3c0.5,0.6,0.8,1.4,0.8,2.4h-6.2
			c0,0.8,0.3,1.5,0.8,2c0.5,0.5,1.1,0.8,1.8,0.8c0.4,0,0.7-0.1,1-0.2c0.3-0.1,0.6-0.3,0.8-0.5C128.2,40.5,128.5,40.2,128.8,39.7z
			 M128.8,37.8c-0.1-0.5-0.3-0.9-0.5-1.1c-0.2-0.3-0.5-0.5-0.9-0.7c-0.4-0.2-0.8-0.3-1.2-0.3c-0.7,0-1.3,0.2-1.7,0.7
			c-0.4,0.3-0.6,0.8-0.8,1.4H128.8z"/>
		<path d="M131.1,35.1h0.9v1c0.3-0.4,0.6-0.7,0.9-0.9c0.3-0.2,0.6-0.3,0.9-0.3c0.2,0,0.5,0.1,0.8,0.2l-0.5,0.8
			c-0.2-0.1-0.3-0.1-0.5-0.1c-0.3,0-0.6,0.1-0.9,0.4s-0.5,0.6-0.6,1.1c-0.1,0.4-0.2,1.2-0.2,2.4V42h-0.9V35.1z"/>
		<path d="M135.6,32.2c0.2,0,0.4,0.1,0.5,0.2c0.1,0.1,0.2,0.3,0.2,0.5c0,0.2-0.1,0.4-0.2,0.5c-0.1,0.1-0.3,0.2-0.5,0.2
			c-0.2,0-0.4-0.1-0.5-0.2c-0.1-0.1-0.2-0.3-0.2-0.5c0-0.2,0.1-0.4,0.2-0.5C135.2,32.3,135.4,32.2,135.6,32.2z M135.2,35.1h0.9V42
			h-0.9V35.1z"/>
		<path d="M137.9,35.1h0.9v1.2c0.4-0.5,0.8-0.8,1.2-1.1c0.4-0.2,0.9-0.4,1.4-0.4c0.5,0,1,0.1,1.4,0.4s0.7,0.6,0.9,1.1
			c0.2,0.4,0.3,1.1,0.3,2.1V42H143v-3.3c0-0.8,0-1.3-0.1-1.6c-0.1-0.5-0.3-0.8-0.6-1s-0.7-0.3-1.1-0.3c-0.5,0-1,0.2-1.4,0.5
			s-0.7,0.8-0.8,1.3c-0.1,0.3-0.1,1-0.1,1.9V42h-0.9V35.1z"/>
		<path d="M151.8,35.1h0.9v5.5c0,1-0.1,1.7-0.3,2.1c-0.2,0.6-0.6,1.1-1.2,1.5c-0.6,0.3-1.3,0.5-2.1,0.5c-0.6,0-1.1-0.1-1.6-0.3
			c-0.5-0.2-0.9-0.4-1.2-0.7c-0.3-0.3-0.6-0.7-0.8-1.2h1c0.3,0.5,0.6,0.8,1,1c0.4,0.2,0.9,0.3,1.5,0.3c0.6,0,1.1-0.1,1.5-0.3
			c0.4-0.2,0.7-0.5,0.9-0.9c0.2-0.3,0.3-0.9,0.3-1.7v-0.4c-0.3,0.4-0.7,0.7-1.2,1s-1,0.3-1.5,0.3c-0.6,0-1.2-0.2-1.8-0.5
			c-0.6-0.3-1-0.7-1.3-1.3c-0.3-0.5-0.5-1.1-0.5-1.8s0.2-1.2,0.5-1.8c0.3-0.6,0.8-1,1.3-1.3s1.2-0.5,1.8-0.5c0.5,0,1,0.1,1.4,0.3
			s0.9,0.6,1.3,1.1V35.1z M149.2,35.8c-0.5,0-1,0.1-1.4,0.4s-0.8,0.6-1,1s-0.4,0.9-0.4,1.4c0,0.8,0.3,1.4,0.8,1.9
			c0.5,0.5,1.2,0.7,2,0.7c0.8,0,1.5-0.2,2-0.7c0.5-0.5,0.7-1.1,0.7-1.9c0-0.5-0.1-1-0.3-1.4s-0.6-0.7-1-1
			C150.1,35.9,149.6,35.8,149.2,35.8z"/>
		<path d="M158.3,32.7h1.9c1.1,0,1.8,0,2.2,0.1c0.5,0.1,1,0.4,1.3,0.8s0.5,0.9,0.5,1.5c0,0.6-0.2,1.1-0.5,1.5s-0.8,0.7-1.4,0.8
			c-0.4,0.1-1.2,0.2-2.4,0.2h-0.7V42h-0.9V32.7z M159.2,33.6v3.2l1.6,0c0.6,0,1.1-0.1,1.4-0.2s0.5-0.3,0.7-0.6s0.3-0.5,0.3-0.9
			c0-0.3-0.1-0.6-0.3-0.9s-0.4-0.4-0.7-0.6c-0.3-0.1-0.7-0.2-1.4-0.2H159.2z"/>
		<path d="M165.5,35.1h0.9v1c0.3-0.4,0.6-0.7,0.9-0.9c0.3-0.2,0.6-0.3,0.9-0.3c0.2,0,0.5,0.1,0.8,0.2l-0.5,0.8
			c-0.2-0.1-0.3-0.1-0.5-0.1c-0.3,0-0.6,0.1-0.9,0.4s-0.5,0.6-0.6,1.1c-0.1,0.4-0.2,1.2-0.2,2.4V42h-0.9V35.1z"/>
		<path d="M173,34.9c1.1,0,1.9,0.4,2.6,1.2c0.6,0.7,1,1.5,1,2.5c0,1-0.3,1.8-1,2.5s-1.5,1.1-2.6,1.1c-1.1,0-1.9-0.4-2.6-1.1
			s-1-1.6-1-2.5c0-1,0.3-1.8,1-2.5C171.1,35.3,172,34.9,173,34.9z M173,35.8c-0.7,0-1.4,0.3-1.9,0.8c-0.5,0.5-0.8,1.2-0.8,2
			c0,0.5,0.1,1,0.4,1.4s0.6,0.8,1,1c0.4,0.2,0.9,0.4,1.4,0.4s0.9-0.1,1.4-0.4c0.4-0.2,0.7-0.6,1-1s0.4-0.9,0.4-1.4
			c0-0.8-0.3-1.4-0.8-2C174.4,36.1,173.8,35.8,173,35.8z"/>
		<path d="M185.2,32.4V42h-0.9v-1.2c-0.4,0.5-0.8,0.8-1.3,1c-0.5,0.2-1,0.3-1.5,0.3c-1,0-1.8-0.4-2.5-1.1c-0.7-0.7-1-1.6-1-2.6
			c0-1,0.3-1.8,1-2.6c0.7-0.7,1.5-1.1,2.5-1.1c0.6,0,1.1,0.1,1.5,0.4c0.5,0.2,0.9,0.6,1.2,1.1v-3.9H185.2z M181.6,35.8
			c-0.5,0-1,0.1-1.4,0.4s-0.8,0.6-1,1c-0.2,0.4-0.4,0.9-0.4,1.4c0,0.5,0.1,1,0.4,1.4c0.2,0.4,0.6,0.8,1,1c0.4,0.2,0.9,0.4,1.4,0.4
			c0.5,0,0.9-0.1,1.4-0.4c0.4-0.2,0.8-0.6,1-1c0.2-0.4,0.4-0.9,0.4-1.4c0-0.8-0.3-1.5-0.8-2C183.1,36,182.4,35.8,181.6,35.8z"/>
		<path d="M187.1,35.1h0.9v3.2c0,0.8,0,1.3,0.1,1.6c0.1,0.4,0.4,0.8,0.7,1s0.8,0.4,1.3,0.4s0.9-0.1,1.3-0.4s0.6-0.6,0.7-0.9
			c0.1-0.3,0.1-0.8,0.1-1.7v-3.2h0.9v3.4c0,1-0.1,1.7-0.3,2.2c-0.2,0.5-0.6,0.9-1,1.1c-0.4,0.3-1,0.4-1.7,0.4s-1.2-0.1-1.7-0.4
			c-0.5-0.3-0.8-0.7-1-1.1c-0.2-0.5-0.3-1.2-0.3-2.2V35.1z"/>
		<path d="M201.8,36.5l-0.7,0.4c-0.6-0.8-1.4-1.2-2.5-1.2c-0.8,0-1.5,0.3-2.1,0.8s-0.8,1.2-0.8,2c0,0.5,0.1,1,0.4,1.4
			c0.3,0.4,0.6,0.8,1.1,1s0.9,0.4,1.5,0.4c1,0,1.8-0.4,2.5-1.2l0.7,0.5c-0.3,0.5-0.8,0.9-1.3,1.2s-1.2,0.4-1.9,0.4
			c-1.1,0-2-0.3-2.7-1c-0.7-0.7-1.1-1.5-1.1-2.5c0-0.7,0.2-1.3,0.5-1.9c0.3-0.6,0.8-1,1.4-1.3c0.6-0.3,1.2-0.5,2-0.5
			c0.5,0,0.9,0.1,1.3,0.2c0.4,0.1,0.8,0.3,1.1,0.5C201.3,35.9,201.6,36.2,201.8,36.5z"/>
		<path d="M204.3,32.5h0.9v2.6h1.4v0.8h-1.4V42h-0.9v-6.1h-1.2v-0.8h1.2V32.5z"/>
		<path d="M211.4,35.8l-0.6,0.6c-0.5-0.5-0.9-0.7-1.4-0.7c-0.3,0-0.5,0.1-0.7,0.3c-0.2,0.2-0.3,0.4-0.3,0.7c0,0.2,0.1,0.4,0.3,0.6
			c0.2,0.2,0.5,0.5,1.1,0.7c0.7,0.3,1.1,0.7,1.3,1c0.2,0.3,0.3,0.7,0.3,1.1c0,0.6-0.2,1-0.6,1.4c-0.4,0.4-0.9,0.6-1.5,0.6
			c-0.4,0-0.8-0.1-1.1-0.3c-0.4-0.2-0.7-0.4-0.9-0.7l0.6-0.6c0.5,0.5,0.9,0.8,1.4,0.8c0.4,0,0.7-0.1,0.9-0.3
			c0.3-0.2,0.4-0.5,0.4-0.8c0-0.3-0.1-0.5-0.2-0.7c-0.2-0.2-0.5-0.4-1.1-0.7c-0.6-0.3-1-0.6-1.3-1c-0.2-0.3-0.3-0.7-0.3-1.1
			c0-0.5,0.2-1,0.5-1.3c0.4-0.3,0.8-0.5,1.4-0.5C210.1,34.9,210.7,35.2,211.4,35.8z"/>
	</g>
</g>
</svg>
